<?xml version="1.0" standalone="no"?>
<svg xmlns:xlink="http://www.w3.org/1999/xlink" id="wave" style="transform:rotate(0deg); transition: 0.3s" viewBox="0 0 1440 140" version="1.1" xmlns="http://www.w3.org/2000/svg"><defs><linearGradient id="sw-gradient-0" x1="0" x2="0" y1="1" y2="0"><stop stop-color="rgba(255, 255, 255, 1)" offset="0%"/><stop stop-color="rgba(255, 255, 255, 1)" offset="100%"/></linearGradient></defs><path style="transform:translate(0, 0px); opacity:1" fill="url(#sw-gradient-0)" d="M0,14L20,16.3C40,19,80,23,120,37.3C160,51,200,75,240,77C280,79,320,61,360,56C400,51,440,61,480,70C520,79,560,89,600,79.3C640,70,680,42,720,39.7C760,37,800,61,840,58.3C880,56,920,28,960,16.3C1000,5,1040,9,1080,18.7C1120,28,1160,42,1200,42C1240,42,1280,28,1320,28C1360,28,1400,42,1440,53.7C1480,65,1520,75,1560,72.3C1600,70,1640,56,1680,51.3C1720,47,1760,51,1800,44.3C1840,37,1880,19,1920,23.3C1960,28,2000,56,2040,60.7C2080,65,2120,47,2160,42C2200,37,2240,47,2280,63C2320,79,2360,103,2400,100.3C2440,98,2480,70,2520,56C2560,42,2600,42,2640,44.3C2680,47,2720,51,2760,51.3C2800,51,2840,47,2860,44.3L2880,42L2880,140L2860,140C2840,140,2800,140,2760,140C2720,140,2680,140,2640,140C2600,140,2560,140,2520,140C2480,140,2440,140,2400,140C2360,140,2320,140,2280,140C2240,140,2200,140,2160,140C2120,140,2080,140,2040,140C2000,140,1960,140,1920,140C1880,140,1840,140,1800,140C1760,140,1720,140,1680,140C1640,140,1600,140,1560,140C1520,140,1480,140,1440,140C1400,140,1360,140,1320,140C1280,140,1240,140,1200,140C1160,140,1120,140,1080,140C1040,140,1000,140,960,140C920,140,880,140,840,140C800,140,760,140,720,140C680,140,640,140,600,140C560,140,520,140,480,140C440,140,400,140,360,140C320,140,280,140,240,140C200,140,160,140,120,140C80,140,40,140,20,140L0,140Z"/></svg>