<?xml version="1.0" standalone="no"?>
<svg xmlns:xlink="http://www.w3.org/1999/xlink" id="wave" style="transform:rotate(0deg); transition: 0.3s" viewBox="0 0 1440 100" version="1.1" xmlns="http://www.w3.org/2000/svg"><defs><linearGradient id="sw-gradient-0" x1="0" x2="0" y1="1" y2="0"><stop stop-color="rgba(254, 247, 244, 1)" offset="0%"/><stop stop-color="rgba(254, 247, 244, 1)" offset="100%"/></linearGradient></defs><path style="transform:translate(0, 0px); opacity:1" fill="url(#sw-gradient-0)" d="M0,70L16,66.7C32,63,64,57,96,48.3C128,40,160,30,192,35C224,40,256,60,288,70C320,80,352,80,384,66.7C416,53,448,27,480,28.3C512,30,544,60,576,63.3C608,67,640,43,672,38.3C704,33,736,47,768,43.3C800,40,832,20,864,15C896,10,928,20,960,20C992,20,1024,10,1056,15C1088,20,1120,40,1152,50C1184,60,1216,60,1248,53.3C1280,47,1312,33,1344,31.7C1376,30,1408,40,1440,46.7C1472,53,1504,57,1536,48.3C1568,40,1600,20,1632,23.3C1664,27,1696,53,1728,60C1760,67,1792,53,1824,45C1856,37,1888,33,1920,26.7C1952,20,1984,10,2016,11.7C2048,13,2080,27,2112,26.7C2144,27,2176,13,2208,6.7C2240,0,2272,0,2288,0L2304,0L2304,100L2288,100C2272,100,2240,100,2208,100C2176,100,2144,100,2112,100C2080,100,2048,100,2016,100C1984,100,1952,100,1920,100C1888,100,1856,100,1824,100C1792,100,1760,100,1728,100C1696,100,1664,100,1632,100C1600,100,1568,100,1536,100C1504,100,1472,100,1440,100C1408,100,1376,100,1344,100C1312,100,1280,100,1248,100C1216,100,1184,100,1152,100C1120,100,1088,100,1056,100C1024,100,992,100,960,100C928,100,896,100,864,100C832,100,800,100,768,100C736,100,704,100,672,100C640,100,608,100,576,100C544,100,512,100,480,100C448,100,416,100,384,100C352,100,320,100,288,100C256,100,224,100,192,100C160,100,128,100,96,100C64,100,32,100,16,100L0,100Z"/></svg>